<?xml version="1.0" encoding="UTF-8" standalone="no"?>
<!DOCTYPE svg PUBLIC "-//W3C//DTD SVG 1.1//EN" "http://www.w3.org/Graphics/SVG/1.1/DTD/svg11.dtd">
<svg width="100%" height="100%" viewBox="0 0 400 400" version="1.1" xmlns="http://www.w3.org/2000/svg" xmlns:xlink="http://www.w3.org/1999/xlink" xml:space="preserve" xmlns:serif="http://www.serif.com/" style="fill-rule:evenodd;clip-rule:evenodd;stroke-linejoin:round;stroke-miterlimit:2;">
    <g transform="matrix(0.928778,0,0,0.915936,15.0546,3.77053)">
        <path d="M414.464,105.061C414.464,44.804 366.22,-4.117 306.796,-4.117L91.459,-4.117C32.036,-4.117 -16.209,44.804 -16.209,105.061L-16.209,323.417C-16.209,383.674 32.036,432.595 91.459,432.595L306.796,432.595C366.22,432.595 414.464,383.674 414.464,323.417L414.464,105.061Z" style="fill:rgb(74,0,255);"/>
    </g>
    <g transform="matrix(0.715616,0,0,0.715616,200,200)">
        <g transform="matrix(1,0,0,1,-249.617,-249.617)">
            <clipPath id="_clip1">
                <rect x="0" y="0" width="499.233" height="499.233"/>
            </clipPath>
            <g clip-path="url(#_clip1)">
                <g>
                    <g>
                        <path d="M383.067,234.883L179.917,117.583C174.534,114.466 168.3,114.466 162.917,117.583C157.534,120.7 154.417,126.366 154.417,132.316L154.417,366.633C154.417,372.583 157.534,378.25 162.917,381.366C165.467,382.783 168.584,383.633 171.417,383.633C174.25,383.633 177.367,382.783 179.917,381.366L382.784,264.066C388.167,260.949 391.284,255.283 391.284,249.333C391.284,243.383 388.167,238 383.067,234.883ZM188.417,337.45L188.417,161.783L340.284,249.616L188.417,337.45Z" style="fill:white;fill-rule:nonzero;"/>
                        <path d="M249.617,0C111.917,0 0,111.917 0,249.617C0,387.317 111.917,499.234 249.617,499.234C387.317,499.234 499.234,387.317 499.234,249.617C499.234,111.917 387.317,0 249.617,0ZM249.617,465.233C130.617,465.233 34,368.616 34,249.616C34,130.616 130.617,34 249.617,34C368.617,34 465.234,130.617 465.234,249.617C465.234,368.617 368.617,465.233 249.617,465.233Z" style="fill:white;fill-rule:nonzero;"/>
                    </g>
                </g>
            </g>
        </g>
    </g>
</svg>
